<?xml version="1.0" encoding="utf-8"?>
<!-- Generator: Adobe Illustrator 21.1.0, SVG Export Plug-In . SVG Version: 6.00 Build 0)  -->
<svg version="1.1" id="Illustrations" xmlns="http://www.w3.org/2000/svg" xmlns:xlink="http://www.w3.org/1999/xlink" x="0px"
	 y="0px" viewBox="0 0 193 165" style="enable-background:new 0 0 193 165;" xml:space="preserve">
<style type="text/css">
	.st0{fill:#FFFFFF;}
	.st1{fill:#CCEFFF;}
	.st2{fill:none;stroke:#1050FF;stroke-width:2;stroke-linejoin:round;stroke-miterlimit:10;}
	.st3{fill:none;stroke:#1050FF;stroke-width:2;stroke-linecap:round;stroke-linejoin:round;stroke-miterlimit:10;}
	.st4{fill:#FFFFFF;stroke:#1050FF;stroke-width:2;stroke-linecap:round;stroke-linejoin:round;stroke-miterlimit:10;}
	.st5{fill:#CCEFFF;stroke:#1050FF;stroke-width:2;stroke-linejoin:round;stroke-miterlimit:10;}
	.st6{fill:#FFFFFF;stroke:#1050FF;stroke-width:2;stroke-linejoin:round;stroke-miterlimit:10;}
	.st7{fill:#CCEFFF;stroke:#1050FF;stroke-width:2;stroke-linecap:round;stroke-linejoin:round;stroke-miterlimit:10;}
	.st8{fill:none;stroke:#1050FF;stroke-width:2;stroke-linecap:round;stroke-linejoin:round;}
	.st9{fill:#1050FF;}
	.st10{fill:none;stroke:#1050FF;stroke-width:2;stroke-linecap:round;stroke-miterlimit:10;}
	.st11{fill:#FFFFFF;stroke:#1050FF;stroke-width:2;stroke-linecap:round;stroke-linejoin:round;}
</style>
<g id="New_Symbol_16_">
</g>
<g id="New_Symbol_17_">
	<g id="New_Symbol">
	</g>
</g>
<g id="New_Symbol_6_12_">
</g>
<g id="New_Symbol_6_14_">
</g>
<g id="New_Symbol_6_15_">
</g>
<g id="New_Symbol_6_17_">
</g>
<g id="New_Symbol_6_16_">
</g>
<g id="New_Symbol_18_">
</g>
<g id="New_Symbol_9">
</g>
<g id="New_Symbol_6_20_">
</g>
<g id="New_Symbol_6_19_">
</g>
<g id="New_Symbol_6_18_">
</g>
<g id="Layer_19">
</g>
<g>
	<g>
		<polygon class="st0" points="86.2,147 96.2,154 105.2,150 105.2,145 101.2,141 101.2,145 97.2,147 97.2,135 90.2,131 92.2,139 		
			"/>
	</g>
	<polygon class="st0" points="35.8,164 26.8,164 22.8,159 22.8,122 17.8,116 39.8,116 39.8,159 	"/>
	<polygon class="st0" points="49.2,164 55.2,156 61.2,164 	"/>
	<polygon class="st0" points="142.2,164 136.2,156 130.2,164 	"/>
	<polygon class="st0" points="180,164 167.2,138.1 167.2,126 170.8,122 155.2,122 158.8,126 158.8,138.1 146,164 	"/>
	<polygon class="st0" points="102.8,70.8 102.8,61.6 107,57 84.5,57 88.8,61.6 88.8,70.8 69.8,81.8 69.8,111.7 95.8,126.5 
		121.8,111.7 121.8,81.8 	"/>
	<g>
		<polygon class="st1" points="88.9,148.8 96.2,154 105.2,150 105.2,145 101.2,141 101.2,145 97.2,147 97.2,135 93.9,133.1 
			95.2,139.5 		"/>
	</g>
	<polygon class="st1" points="136.2,164 142.2,164 136.2,156 	"/>
	<polygon class="st1" points="55.2,164 61.2,164 55.2,156 	"/>
	<polygon class="st1" points="157.8,152 151.8,164 180,164 174.1,152 	"/>
	<polygon class="st1" points="27.8,140 27.8,164 35.8,164 39.8,159 39.8,140 	"/>
	<polygon class="st1" points="121.8,111.7 121.8,97 116.6,93 111.4,97 106.2,93 101,97 95.8,93 90.6,97 85.3,93 80.2,97 74.9,93 
		74.8,93.2 74.8,108.4 101,123.5 	"/>
	<polygon class="st7" points="128,20.7 120.3,12.8 116.8,23.9 	"/>
	<polygon class="st7" points="128.9,60.6 131.1,54.1 124,55.3 	"/>
	<polygon class="st7" points="89.4,41.8 89.4,35.1 83.1,38.4 	"/>
	<polyline class="st3" points="51.5,26.8 54.2,31 59,29.6 61.8,33.8 66.5,32.3 69.3,36.5 	"/>
	<polyline class="st3" points="133,32.8 130.3,37 125.5,35.6 122.8,39.8 118,38.3 115.3,42.5 	"/>
	<polyline class="st3" points="102.4,1.5 103.4,6.4 99,8.8 100,13.7 95.6,16 96.6,20.9 	"/>
	<polygon class="st5" points="69.9,14.8 66.3,14.1 65.6,10.5 67.8,8.4 71.3,9.1 72,12.7 	"/>
	<polygon class="st5" points="59.9,51.6 56.3,50.9 55.6,47.4 57.8,45.3 61.3,46 62,49.5 	"/>
	<polygon class="st2" points="35.8,164 26.8,164 22.8,159 22.8,122 17.8,116 39.8,116 39.8,159 	"/>
	<line class="st3" x1="26.8" y1="128" x2="29.8" y2="128"/>
	<line class="st3" x1="26.8" y1="134" x2="29.8" y2="134"/>
	<line class="st3" x1="26.8" y1="146" x2="29.8" y2="146"/>
	<line class="st3" x1="26.8" y1="152" x2="29.8" y2="152"/>
	<g>
		<polygon class="st3" points="86.2,147 96.2,154 105.2,150 105.2,145 101.2,141 101.2,145 97.2,147 97.2,135 90.2,131 92.2,139 		
			"/>
	</g>
	<polygon class="st4" points="108.8,164 83.8,164 88.8,158 103.8,158 	"/>
	<g>
		<polygon class="st2" points="102.8,70.8 102.8,61.6 107,57 84.5,57 88.8,61.6 88.8,70.8 69.8,81.8 69.8,111.7 95.8,126.5 
			121.8,111.7 121.8,81.8 		"/>
		<polyline class="st3" points="69.8,97 74.9,93 80.2,97 85.3,93 90.6,97 95.8,93 101,97 106.2,93 111.4,97 116.6,93 121.8,97 		"/>
	</g>
	<polygon class="st3" points="49.2,164 55.2,156 61.2,164 	"/>
	<polyline class="st3" points="136.2,156 124.8,106 66.8,106 55.2,156 	"/>
	<polygon class="st3" points="142.2,164 136.2,156 130.2,164 	"/>
	<line class="st3" x1="153.8" y1="160" x2="155.8" y2="156"/>
	<polygon class="st2" points="180,164 167.2,138.1 167.2,126 170.8,122 155.2,122 158.8,126 158.8,138.1 146,164 	"/>
	<g>
		<line class="st3" x1="10" y1="164" x2="184" y2="164"/>
		<line class="st3" x1="189" y1="164" x2="192" y2="164"/>
		<line class="st3" x1="1" y1="164" x2="4" y2="164"/>
	</g>
	<line class="st3" x1="174.1" y1="152" x2="151.9" y2="152"/>
	<rect x="94" y="75.8" transform="matrix(0.7071 -0.7071 0.7071 0.7071 -26.9535 90.7619)" class="st3" width="4.2" height="4.2"/>
	<rect x="78.1" y="84.9" transform="matrix(0.7071 -0.7071 0.7071 0.7071 -38.0136 82.227)" class="st3" width="4.2" height="4.2"/>
	<g>
		<path class="st9" d="M97.7,114.4c-0.1,0-0.1,0-0.1,0.1l-1.9,1.9c-0.1,0.1-0.1,0.2,0,0.3l1.9,1.9c0,0,0.1,0.1,0.1,0.1
			c0.1,0,0.1,0,0.1-0.1l1.9-1.9c0.1-0.1,0.1-0.2,0-0.3l-1.9-1.9C97.8,114.4,97.8,114.4,97.7,114.4L97.7,114.4z"/>
	</g>
	<g>
		<path class="st9" d="M105.9,98.4c-0.1,0-0.1,0-0.1,0.1l-1.9,1.9c-0.1,0.1-0.1,0.2,0,0.3l1.9,1.9c0,0,0.1,0.1,0.1,0.1
			c0.1,0,0.1,0,0.1-0.1l1.9-1.9c0.1-0.1,0.1-0.2,0-0.3l-1.9-1.9C106,98.4,106,98.4,105.9,98.4L105.9,98.4z"/>
	</g>
	<g>
		<path class="st9" d="M86.1,108.7c-0.1,0-0.1,0-0.1,0.1l-1.9,1.9c-0.1,0.1-0.1,0.2,0,0.3l1.9,1.9c0,0,0.1,0.1,0.1,0.1
			s0.1,0,0.1-0.1l1.9-1.9c0.1-0.1,0.1-0.2,0-0.3l-1.9-1.9C86.2,108.7,86.2,108.7,86.1,108.7L86.1,108.7z"/>
	</g>
	<line class="st3" x1="96.2" y1="158" x2="96.2" y2="160"/>
	<line class="st3" x1="91.8" y1="158" x2="91.8" y2="160"/>
	<line class="st3" x1="100.8" y1="158" x2="100.8" y2="160"/>
	<line class="st3" x1="22.8" y1="140" x2="39.8" y2="140"/>
</g>
</svg>
