<?xml version="1.0" encoding="utf-8"?>
<!-- Generator: Adobe Illustrator 21.1.0, SVG Export Plug-In . SVG Version: 6.00 Build 0)  -->
<svg version="1.1" id="Illustrations" xmlns="http://www.w3.org/2000/svg" xmlns:xlink="http://www.w3.org/1999/xlink" x="0px"
	 y="0px" viewBox="0 0 193 140" style="enable-background:new 0 0 193 140;" xml:space="preserve">
<style type="text/css">
	.st0{fill:#FFFFFF;}
	.st1{fill:#CCEFFF;}
	.st2{fill:none;stroke:#1050FF;stroke-width:2;stroke-linejoin:round;stroke-miterlimit:10;}
	.st3{fill:none;stroke:#1050FF;stroke-width:2;stroke-linecap:round;stroke-linejoin:round;stroke-miterlimit:10;}
	.st4{fill:#FFFFFF;stroke:#1050FF;stroke-width:2;stroke-linecap:round;stroke-linejoin:round;stroke-miterlimit:10;}
	.st5{fill:#CCEFFF;stroke:#1050FF;stroke-width:2;stroke-linejoin:round;stroke-miterlimit:10;}
	.st6{fill:#FFFFFF;stroke:#1050FF;stroke-width:2;stroke-linejoin:round;stroke-miterlimit:10;}
	.st7{fill:#CCEFFF;stroke:#1050FF;stroke-width:2;stroke-linecap:round;stroke-linejoin:round;stroke-miterlimit:10;}
	.st8{fill:none;stroke:#1050FF;stroke-width:2;stroke-linecap:round;stroke-linejoin:round;}
	.st9{fill:#1050FF;}
	.st10{fill:none;stroke:#1050FF;stroke-width:2;stroke-linecap:round;stroke-miterlimit:10;}
	.st11{fill:#FFFFFF;stroke:#1050FF;stroke-width:2;stroke-linecap:round;stroke-linejoin:round;}
</style>
<g id="New_Symbol_16_">
</g>
<g id="New_Symbol_17_">
	<g id="New_Symbol">
	</g>
</g>
<g id="New_Symbol_6_12_">
</g>
<g id="New_Symbol_6_14_">
</g>
<g id="New_Symbol_6_15_">
</g>
<g id="New_Symbol_6_17_">
</g>
<g id="New_Symbol_6_16_">
</g>
<g id="New_Symbol_18_">
</g>
<g id="New_Symbol_9">
</g>
<g id="New_Symbol_6_20_">
</g>
<g id="New_Symbol_6_19_">
</g>
<g id="New_Symbol_6_18_">
</g>
<g id="Layer_19">
</g>
<g>
	<polygon class="st6" points="31,139 17,139 12,123 36,123 	"/>
	<polygon class="st6" points="175,139 157,139 154,115 178,115 	"/>
	<polygon class="st0" points="32,123 16,123 16,102 24,96 32,102 	"/>
	<g>
		<polygon class="st0" points="106,139 102,128 88,128 84,139 		"/>
	</g>
	<polyline class="st0" points="120,60 143,60 143,128 47,128 47,60 72,60 	"/>
	<polygon class="st0" points="90,71 85,29 95,6 105,29 100,71 	"/>
	<polygon class="st1" points="24,96 32,102 32,123 24,123 	"/>
	<polygon class="st1" points="103.8,133 102,128 88,128 86.2,133 	"/>
	<polygon class="st1" points="95,6 105,29 100,71 95,71 	"/>
	<polygon class="st1" points="143,60 143,115 47,115 	"/>
	<polyline class="st3" points="159,110 161,108 157,104 159,102 	"/>
	<polyline class="st3" points="166,110 168,108 164,104 166,102 	"/>
	<polyline class="st3" points="173,110 175,108 171,104 173,102 	"/>
	<polygon class="st2" points="98,123 95,125 92,123 92,120 95,118 98,120 	"/>
	<g>
		<polygon class="st3" points="106,139 102,128 88,128 84,139 		"/>
	</g>
	<polygon class="st3" points="32,123 16,123 16,102 24,96 32,102 	"/>
	<line class="st3" x1="16" y1="107" x2="13" y2="107"/>
	<line class="st3" x1="16" y1="102" x2="14" y2="101"/>
	<line class="st3" x1="16" y1="113" x2="13" y2="113"/>
	<line class="st3" x1="16" y1="119" x2="13" y2="119"/>
	<line class="st3" x1="32" y1="107" x2="35" y2="107"/>
	<line class="st3" x1="32" y1="113" x2="35" y2="113"/>
	<line class="st3" x1="32" y1="119" x2="35" y2="119"/>
	<line class="st3" x1="20" y1="99" x2="18" y2="97"/>
	<line class="st3" x1="32" y1="102" x2="34" y2="101"/>
	<line class="st3" x1="28" y1="99" x2="30" y2="97"/>
	<line class="st3" x1="13.3" y1="127" x2="34.8" y2="127"/>
	<polyline class="st3" points="20,119 22,116 20,113 22,110 20,107 22,104 	"/>
	<polyline class="st3" points="26,119 28,116 26,113 28,110 26,107 28,104 	"/>
	<g>
		<line class="st3" x1="10" y1="139" x2="184" y2="139"/>
		<line class="st3" x1="189" y1="139" x2="192" y2="139"/>
		<line class="st3" x1="1" y1="139" x2="4" y2="139"/>
	</g>
	<polygon class="st6" points="99,34.5 95,37 91,34.5 91,29.5 95,27 99,29.5 	"/>
	<polygon class="st3" points="90,71 85,29 95,6 105,29 100,71 	"/>
	<polygon class="st4" points="84,81 79,87 74,81 79,59 	"/>
	<polygon class="st4" points="100,81 95,87 90,81 95,59 	"/>
	<polygon class="st4" points="116,81 111,87 106,81 111,59 	"/>
	<line class="st3" x1="80.9" y1="67.3" x2="87.9" y2="53.2"/>
	<line class="st3" x1="83.1" y1="76.9" x2="90" y2="71"/>
	<line class="st3" x1="109.1" y1="67.3" x2="102.1" y2="53.2"/>
	<line class="st3" x1="106.9" y1="76.9" x2="100" y2="71"/>
	<line class="st3" x1="95" y1="6" x2="95" y2="1"/>
	<line class="st3" x1="74" y1="81" x2="84" y2="81"/>
	<line class="st3" x1="90" y1="81" x2="100" y2="81"/>
	<line class="st3" x1="106" y1="81" x2="116" y2="81"/>
	<g>
		<polygon class="st5" points="166,132 172,126 169,121 166,124 163,121 160,126 		"/>
	</g>
	<polyline class="st3" points="177.3,121 185,121 180,133 175.8,133 	"/>
	<g>
		<line class="st3" x1="95" y1="92" x2="95" y2="98"/>
		<line class="st3" x1="95" y1="102" x2="95" y2="104"/>
		<line class="st3" x1="99" y1="90" x2="99" y2="96"/>
		<line class="st3" x1="99" y1="100" x2="99" y2="102"/>
		<line class="st3" x1="91" y1="90" x2="91" y2="96"/>
		<line class="st3" x1="91" y1="100" x2="91" y2="102"/>
		<line class="st3" x1="95" y1="108" x2="95" y2="109"/>
		<line class="st3" x1="99" y1="106" x2="99" y2="107"/>
		<line class="st3" x1="91" y1="106" x2="91" y2="107"/>
	</g>
	<g>
		<line class="st3" x1="79" y1="92" x2="79" y2="98"/>
		<line class="st3" x1="79" y1="102" x2="79" y2="104"/>
		<line class="st3" x1="83" y1="90" x2="83" y2="96"/>
		<line class="st3" x1="83" y1="100" x2="83" y2="102"/>
		<line class="st3" x1="75" y1="90" x2="75" y2="96"/>
		<line class="st3" x1="75" y1="100" x2="75" y2="102"/>
		<line class="st3" x1="79" y1="108" x2="79" y2="109"/>
		<line class="st3" x1="83" y1="106" x2="83" y2="107"/>
		<line class="st3" x1="75" y1="106" x2="75" y2="107"/>
	</g>
	<g>
		<line class="st3" x1="111" y1="92" x2="111" y2="98"/>
		<line class="st3" x1="111" y1="102" x2="111" y2="104"/>
		<line class="st3" x1="115" y1="90" x2="115" y2="96"/>
		<line class="st3" x1="115" y1="100" x2="115" y2="102"/>
		<line class="st3" x1="107" y1="90" x2="107" y2="96"/>
		<line class="st3" x1="107" y1="100" x2="107" y2="102"/>
		<line class="st3" x1="111" y1="108" x2="111" y2="109"/>
		<line class="st3" x1="115" y1="106" x2="115" y2="107"/>
		<line class="st3" x1="107" y1="106" x2="107" y2="107"/>
	</g>
	<polyline class="st3" points="120,60 143,60 143,128 47,128 47,60 72,60 	"/>
	<line class="st3" x1="47" y1="115" x2="143" y2="115"/>
</g>
</svg>
