<?xml version="1.0" encoding="utf-8"?>
<!-- Generator: Adobe Illustrator 21.1.0, SVG Export Plug-In . SVG Version: 6.00 Build 0)  -->
<svg version="1.1" id="Illustrations" xmlns="http://www.w3.org/2000/svg" xmlns:xlink="http://www.w3.org/1999/xlink" x="0px"
	 y="0px" viewBox="0 0 199 153.5" style="enable-background:new 0 0 199 153.5;" xml:space="preserve">
<style type="text/css">
	.st0{fill:#FFFFFF;}
	.st1{fill:#CCEFFF;}
	.st2{fill:none;stroke:#1050FF;stroke-width:2;stroke-linejoin:round;stroke-miterlimit:10;}
	.st3{fill:none;stroke:#1050FF;stroke-width:2;stroke-linecap:round;stroke-linejoin:round;stroke-miterlimit:10;}
	.st4{fill:#FFFFFF;stroke:#1050FF;stroke-width:2;stroke-linecap:round;stroke-linejoin:round;stroke-miterlimit:10;}
	.st5{fill:#CCEFFF;stroke:#1050FF;stroke-width:2;stroke-linejoin:round;stroke-miterlimit:10;}
	.st6{fill:#FFFFFF;stroke:#1050FF;stroke-width:2;stroke-linejoin:round;stroke-miterlimit:10;}
	.st7{fill:#CCEFFF;stroke:#1050FF;stroke-width:2;stroke-linecap:round;stroke-linejoin:round;stroke-miterlimit:10;}
	.st8{fill:none;stroke:#1050FF;stroke-width:2;stroke-linecap:round;stroke-linejoin:round;}
	.st9{fill:#1050FF;}
	.st10{fill:none;stroke:#1050FF;stroke-width:2;stroke-linecap:round;stroke-miterlimit:10;}
	.st11{fill:#FFFFFF;stroke:#1050FF;stroke-width:2;stroke-linecap:round;stroke-linejoin:round;}
</style>
<g id="New_Symbol_16_">
</g>
<g id="New_Symbol_17_">
	<g id="New_Symbol">
	</g>
</g>
<g id="New_Symbol_6_12_">
</g>
<g id="New_Symbol_6_14_">
</g>
<g id="New_Symbol_6_15_">
</g>
<g id="New_Symbol_6_17_">
</g>
<g id="New_Symbol_6_16_">
</g>
<g id="New_Symbol_18_">
</g>
<g id="New_Symbol_9">
</g>
<g id="New_Symbol_6_20_">
</g>
<g id="New_Symbol_6_19_">
</g>
<g id="New_Symbol_6_18_">
</g>
<g id="Layer_19">
</g>
<g>
	<rect x="10" y="59.5" class="st4" width="36" height="36"/>
	<polygon class="st4" points="120.5,91.9 112,83.4 133.2,62.2 140.3,63.6 141.7,70.7 	"/>
	<rect x="80" y="41" class="st0" width="44" height="80.5"/>
	<polygon class="st7" points="73,17.2 72.9,6.2 62.7,11.8 	"/>
	<polygon class="st7" points="166.9,46.5 169.1,40.1 162,41.3 	"/>
	<polygon class="st7" points="50.8,135.9 53,129.5 45.9,130.7 	"/>
	<polygon class="st7" points="105.2,23.8 108.5,17.9 101.3,17.8 	"/>
	<polyline class="st3" points="37,22.4 39.7,26.6 44.5,25.2 47.2,29.4 52,28 54.7,32.2 	"/>
	<polyline class="st3" points="148.4,124.8 150.1,129.5 155.1,129.3 156.7,134 161.7,133.8 163.3,138.5 	"/>
	<polyline class="st3" points="20.3,122.6 25.2,123.5 27.4,119 32.3,119.9 34.6,115.4 39.5,116.3 	"/>
	<polyline class="st3" points="161.9,22.4 159.2,26.6 154.4,25.2 151.7,29.4 146.9,28 144.1,32.2 	"/>
	<polygon class="st2" points="105,114.2 102,116.2 99,114.2 99,111.2 102,109.2 105,111.2 	"/>
	<polygon class="st5" points="131.1,7.9 127.5,7.2 126.8,3.6 128.9,1.5 132.5,2.2 133.2,5.7 	"/>
	<polygon class="st5" points="172.2,125.5 168.7,124.8 168,121.3 170.1,119.1 173.7,119.8 174.4,123.4 	"/>
	<g>
		<line class="st3" x1="10" y1="152.5" x2="184" y2="152.5"/>
		<line class="st3" x1="189" y1="152.5" x2="192" y2="152.5"/>
		<line class="st3" x1="1" y1="152.5" x2="4" y2="152.5"/>
	</g>
	<polygon class="st1" points="124,41 124,104.5 80,104.5 	"/>
	<rect x="80" y="41" class="st3" width="44" height="80.5"/>
	<line class="st3" x1="80" y1="104.5" x2="124" y2="104.5"/>
	<polygon class="st0" points="114,152.5 114,139.2 125,123.2 124,121.5 91,121.5 91,115.2 80,108.2 80,87.7 74,83.2 68,88.2 
		68,118.2 80,134.2 80,152.5 	"/>
	<polygon class="st4" points="133,91 135,97 133,103 110,103 107,97 110,91 	"/>
	<polygon class="st4" points="131,103 133,109 131,115 112,115 109,109 112,103 	"/>
	<polyline class="st7" points="24,83.5 18,83.5 18,90.5 24,88.5 	"/>
	<polyline class="st7" points="38,77.5 32,77.5 32,84.5 38,82.5 	"/>
	<polyline class="st3" points="24,88.5 24,70.5 38,65.5 38,82.5 	"/>
	<polyline class="st3" points="51,70.5 51,100.5 21,100.5 	"/>
	<polygon class="st0" points="198,92.5 164,92.5 156,101 156,60.5 198,60.5 	"/>
	<polygon class="st1" points="170,67.5 170,71.5 166,74 162,71.5 	"/>
	<polygon class="st1" points="162,88.5 156,95 156,101 164,92.5 198,92.5 198,88.5 	"/>
	<polygon class="st1" points="186.8,72.4 182,84 177,81 174,85 192,85 	"/>
	<polygon class="st8" points="198,92.5 164,92.5 156,101 156,60.5 198,60.5 	"/>
	<polygon class="st8" points="170,71.5 166,74 162,71.5 162,67.5 166,65 170,67.5 	"/>
	<polygon class="st8" points="185,68 180,80 175,77 169,85 192,85 	"/>
	<line class="st8" x1="164" y1="85" x2="194" y2="85"/>
	<polygon class="st8" points="185,68 180,80 175,77 169,85 192,85 	"/>
	<polygon class="st1" points="91,127 91,121.5 111.2,121.5 114,127 	"/>
	<line class="st4" x1="91" y1="125.5" x2="91" y2="121.5"/>
	<polygon class="st3" points="114,152.5 114,139.2 125,123.2 124,121.5 91,121.5 91,115.2 80,108.2 80,87.7 74,83.2 68,88.2 
		68,118.2 80,134.2 80,152.5 	"/>
	<polygon class="st4" points="129,115 131,121 129,127 114,127 111,121 114,115 	"/>
</g>
</svg>
