<?xml version="1.0" encoding="utf-8"?>
<!-- Generator: Adobe Illustrator 21.1.0, SVG Export Plug-In . SVG Version: 6.00 Build 0)  -->
<svg version="1.1" id="Illustrations" xmlns="http://www.w3.org/2000/svg" xmlns:xlink="http://www.w3.org/1999/xlink" x="0px"
	 y="0px" viewBox="0 0 193 109" style="enable-background:new 0 0 193 109;" xml:space="preserve">
<style type="text/css">
	.st0{fill:#FFFFFF;}
	.st1{fill:#CCEFFF;}
	.st2{fill:none;stroke:#1050FF;stroke-width:2;stroke-linejoin:round;stroke-miterlimit:10;}
	.st3{fill:none;stroke:#1050FF;stroke-width:2;stroke-linecap:round;stroke-linejoin:round;stroke-miterlimit:10;}
	.st4{fill:#FFFFFF;stroke:#1050FF;stroke-width:2;stroke-linecap:round;stroke-linejoin:round;stroke-miterlimit:10;}
	.st5{fill:#CCEFFF;stroke:#1050FF;stroke-width:2;stroke-linejoin:round;stroke-miterlimit:10;}
	.st6{fill:#FFFFFF;stroke:#1050FF;stroke-width:2;stroke-linejoin:round;stroke-miterlimit:10;}
	.st7{fill:#CCEFFF;stroke:#1050FF;stroke-width:2;stroke-linecap:round;stroke-linejoin:round;stroke-miterlimit:10;}
	.st8{fill:none;stroke:#1050FF;stroke-width:2;stroke-linecap:round;stroke-linejoin:round;}
	.st9{fill:#1050FF;}
	.st10{fill:none;stroke:#1050FF;stroke-width:2;stroke-linecap:round;stroke-miterlimit:10;}
	.st11{fill:#FFFFFF;stroke:#1050FF;stroke-width:2;stroke-linecap:round;stroke-linejoin:round;}
</style>
<g id="New_Symbol_16_">
</g>
<g id="New_Symbol_17_">
	<g id="New_Symbol">
	</g>
</g>
<g id="New_Symbol_6_12_">
</g>
<g id="New_Symbol_6_14_">
</g>
<g id="New_Symbol_6_15_">
</g>
<g id="New_Symbol_6_17_">
</g>
<g id="New_Symbol_6_16_">
</g>
<g id="New_Symbol_18_">
</g>
<g id="New_Symbol_9">
</g>
<g id="New_Symbol_6_20_">
</g>
<g id="New_Symbol_6_19_">
</g>
<g id="New_Symbol_6_18_">
</g>
<g id="Layer_19">
</g>
<g>
	<polygon class="st0" points="100.5,61 120,61 126,61 141,55 141,36 123,29 105,36 104,42 	"/>
	<polyline class="st0" points="133,14 136,14 136,17 133,18.5 	"/>
	<polyline class="st0" points="71,70 64,108 78,70 	"/>
	<polyline class="st0" points="135,70 139,108 121,76 103,108 108,70 	"/>
	<polygon class="st0" points="158,70 66,70 58,61 166,61 	"/>
	<polyline class="st0" points="154,70 161,108 147,70 	"/>
	<polygon class="st0" points="158,61 151,61 149,48 160,48 	"/>
	<polygon class="st0" points="133,23 123,27 113,23 113,6.5 123,1 133,6.5 	"/>
	<polygon class="st0" points="37,108 28,108 23,89 42,89 	"/>
	<polygon class="st1" points="121,76 139,108 135,70 113,70 109.5,96.4 	"/>
	<polygon class="st1" points="155.1,76 154,70 147,70 149.2,76 	"/>
	<polygon class="st1" points="69.9,76 71,70 78,70 75.8,76 	"/>
	<polygon class="st1" points="32.5,89 42,89 37,108 32.5,108 	"/>
	<polygon class="st1" points="154,61 158,61 160,48 154,48 	"/>
	<polygon class="st1" points="113,12 113,10.5 123,5 133,10.5 133,12 	"/>
	<polygon class="st2" points="133,23 123,27 113,23 113,6.5 123,1 133,6.5 	"/>
	<line class="st3" x1="118" y1="16.5" x2="118" y2="15"/>
	<line class="st3" x1="126" y1="16.5" x2="126" y2="15"/>
	<polygon class="st4" points="72.3,61 65,35 98,35 105.3,61 	"/>
	<polygon class="st5" points="87.5,47.5 84.5,49.5 81.5,47.5 81.5,44.5 84.5,42.5 87.5,44.5 	"/>
	<g>
		<polyline class="st3" points="129.3,31.4 123,44 116.7,31.4 		"/>
	</g>
	<line class="st3" x1="133" y1="12" x2="104" y2="12"/>
	<polyline class="st3" points="124.5,21 122,22 119.5,21 	"/>
	<polyline class="st3" points="133,14 136,14 136,17 133,18.5 	"/>
	<line class="st3" x1="104.2" y1="57" x2="71.2" y2="57"/>
	<polygon class="st4" points="105.3,61 121,61 119,57 104.2,57 	"/>
	<polyline class="st3" points="135,43 135,50 120,61 126,61 141,55 141,36 123,29 105,36 104,42 	"/>
	<line class="st3" x1="135" y1="43" x2="135" y2="48"/>
	<polygon class="st3" points="158,70 66,70 58,61 166,61 	"/>
	<polyline class="st3" points="71,70 64,108 78,70 	"/>
	<polyline class="st3" points="154,70 161,108 147,70 	"/>
	<g>
		<line class="st3" x1="10" y1="108" x2="184" y2="108"/>
		<line class="st3" x1="189" y1="108" x2="192" y2="108"/>
		<line class="st3" x1="1" y1="108" x2="4" y2="108"/>
	</g>
	<polyline class="st3" points="135,70 139,108 121,76 103,108 108,70 	"/>
	<g>
		<polyline class="st3" points="151,42 153,40 149,36 151,34 		"/>
		<polyline class="st3" points="158,42 160,40 156,36 158,34 		"/>
	</g>
	<polygon class="st3" points="158,61 151,61 149,48 160,48 	"/>
	<polygon class="st3" points="37,108 28,108 23,89 42,89 	"/>
	<polygon class="st4" points="37,72 41,72 45,64 37,68 	"/>
	<polygon class="st4" points="28,79 24,79 17,69 28,75 	"/>
	<polygon class="st4" points="38,53 42,53 49,43 38,49 	"/>
	<polygon class="st4" points="24,63 13,51 29,58 29,63 	"/>
	<line class="st3" x1="33" y1="89" x2="33" y2="36"/>
	<polygon class="st4" points="29,41 19,33 24,44 29,46 	"/>
	<polyline class="st3" points="25.5,98 29.5,94 32.5,97 35.5,94 39.5,98 	"/>
</g>
</svg>
