<?xml version="1.0" encoding="iso-8859-1"?>
<!-- Generator: Adobe Illustrator 19.0.0, SVG Export Plug-In . SVG Version: 6.00 Build 0)  -->
<svg version="1.1" id="Layer_1" xmlns="http://www.w3.org/2000/svg" xmlns:xlink="http://www.w3.org/1999/xlink" x="0px" y="0px"
	 viewBox="0 0 504.091 504.091" style="enable-background:new 0 0 504.091 504.091;" xml:space="preserve">
<path style="fill:#F2F2F2;" d="M432.67,379.116c-135.483,71.68-157.538,126.425-267.815,115.791
	C32.522,463.399,48.276,346.82,6.135,166.045C-36.401-15.124,149.495-34.029,339.723,75.46
	C496.867,165.651,567.759,307.436,432.67,379.116z"/>
<path style="fill:#EFC75E;" d="M236.141,157.38c52.382,0,94.523,42.142,94.523,94.523s-42.142,94.523-94.523,94.523
	s-94.523-42.142-94.523-94.523C141.618,199.916,184.153,157.38,236.141,157.38z"/>
<path style="fill:#F4D88F;" d="M259.772,204.642c12.997,0,23.631,10.634,23.631,23.631s-10.634,23.631-23.631,23.631
	c-12.997,0-23.631-10.634-23.631-23.631S246.775,204.642,259.772,204.642z"/>
<path style="fill:#DCB757;" d="M251.895,330.673c-52.382,0-94.523-42.142-94.523-94.523c0-22.055,7.483-42.535,20.48-58.289
	c-22.055,17.329-36.234,44.111-36.234,74.043c0,52.382,42.142,94.523,94.523,94.523c29.932,0,57.108-14.178,74.043-36.234
	C294.43,323.19,273.95,330.673,251.895,330.673z"/>
<g>
</g>
<g>
</g>
<g>
</g>
<g>
</g>
<g>
</g>
<g>
</g>
<g>
</g>
<g>
</g>
<g>
</g>
<g>
</g>
<g>
</g>
<g>
</g>
<g>
</g>
<g>
</g>
<g>
</g>
</svg>
