<?xml version="1.0" encoding="iso-8859-1"?>
<!-- Generator: Adobe Illustrator 18.0.0, SVG Export Plug-In . SVG Version: 6.00 Build 0)  -->
<!DOCTYPE svg PUBLIC "-//W3C//DTD SVG 1.1//EN" "http://www.w3.org/Graphics/SVG/1.1/DTD/svg11.dtd">
<svg version="1.1" id="Capa_1" xmlns="http://www.w3.org/2000/svg" xmlns:xlink="http://www.w3.org/1999/xlink" x="0px" y="0px"
	 viewBox="0 0 57 57" style="enable-background:new 0 0 57 57;" xml:space="preserve">
<g>
	<polygon style="fill:#C6C6C6;" points="26,57 12,51 12,18 26,23 	"/>
	<polygon style="fill:#E6E6E6;" points="45,52 26,57 26,23 45,18 	"/>
	<polygon style="fill:#E2E2E2;" points="38,4 19,8 19,4 38,0 	"/>
	<polygon style="fill:#D1D1D1;" points="26,23 12,18 19,8 19,8 	"/>
	<polygon style="fill:#EAEAEA;" points="45,18 26,23 19,8 38,4 	"/>
	<polygon style="fill:#3DABEF;" points="45,37 26,52 26,37 45,21 	"/>
	<polygon style="fill:#2B9DD6;" points="12,46 26,52 26,37 12,31 	"/>
	<path style="fill:#FFFFFF;" d="M34.215,16.875L34.215,16.875c-2.217,0.58-2.956-1.423-3.305-2.753l0,0
		c-0.348-1.33-0.684-3.439,1.533-4.019l0,0c2.217-0.58,2.956,1.423,3.304,2.753v0C36.095,14.186,36.432,16.295,34.215,16.875z"/>
	<polygon style="fill:#EDEDED;" points="34,4.842 36,4.421 36,0.421 34,0.842 	"/>
	<polygon style="fill:#EDEDED;" points="30,5.684 32,5.263 32,1.263 30,1.684 	"/>
	<polygon style="fill:#EDEDED;" points="26,6.526 28,6.105 28,2.105 26,2.526 	"/>
	<polygon style="fill:#EDEDED;" points="22,7.368 24,6.947 24,2.947 22,3.368 	"/>
</g>
<g>
</g>
<g>
</g>
<g>
</g>
<g>
</g>
<g>
</g>
<g>
</g>
<g>
</g>
<g>
</g>
<g>
</g>
<g>
</g>
<g>
</g>
<g>
</g>
<g>
</g>
<g>
</g>
<g>
</g>
</svg>
