<?xml version="1.0" encoding="iso-8859-1"?>
<!-- Generator: Adobe Illustrator 18.0.0, SVG Export Plug-In . SVG Version: 6.00 Build 0)  -->
<!DOCTYPE svg PUBLIC "-//W3C//DTD SVG 1.1//EN" "http://www.w3.org/Graphics/SVG/1.1/DTD/svg11.dtd">
<svg version="1.1" id="Capa_1" xmlns="http://www.w3.org/2000/svg" xmlns:xlink="http://www.w3.org/1999/xlink" x="0px" y="0px"
	 viewBox="0 0 55.569 55.569" style="enable-background:new 0 0 55.569 55.569;" xml:space="preserve">
<g>
	<path style="fill:#88C057;" d="M41.971,27.098c1.551,0.368,3.246,0.36,5.054-0.403c3.108-1.311,5.318-4.292,5.387-7.665
		c0.078-3.778-2.319-7-5.677-8.178c-0.236-3.43-3.086-6.14-6.575-6.14c-0.01,0-0.02,0.001-0.03,0.001
		c0.062-0.519,0.027-1.068-0.141-1.641c-0.472-1.61-1.887-2.845-3.553-3.043c-1.366-0.162-2.62,0.327-3.499,1.196
		C32.103,0.472,31.007,0,29.792,0c-2.603,0-4.713,2.11-4.713,4.713c0,0.008,0.002,0.016,0.002,0.024
		c-3.164,0.24-5.658,2.878-5.658,6.103c0,0.493,0.064,0.97,0.174,1.429c-3.766,0.157-6.773,3.25-6.773,7.054
		c0,1.289,0.35,2.493,0.953,3.534c-1.157,0.951-1.895,2.393-1.895,4.007c0,2.257,1.445,4.172,3.459,4.884
		c-0.26,9.217,3.029,14.655,9.392,21.98c0.114,0.131,0.229,0.263,0.345,0.394c0.025,0.028,0.05,0.056,0.075,0.084
		c2.646,2.969,8.614,0.695,7.33-3.069c-6.855-20.11,14.275-17.203,14.275-17.203s0.604-6.083-4.847-6.368
		c0.007-0.152,0.014-0.305,0.021-0.457C41.946,27.106,41.957,27.101,41.971,27.098z"/>
	<path style="fill:#659C35;" d="M25.154,54.206c-0.025-0.028-0.05-0.056-0.075-0.084c-0.116-0.131-0.231-0.262-0.345-0.394
		c-6.364-7.325-9.653-12.763-9.392-21.98c-2.014-0.712-3.459-2.627-3.459-4.884c0-1.615,0.738-3.056,1.895-4.007
		c-0.602-1.041-0.953-2.245-0.953-3.534c0-3.804,3.007-6.898,6.773-7.054c-0.11-0.459-0.174-0.936-0.174-1.429
		c0-2.562,1.576-4.748,3.809-5.662c-0.148-0.485-0.336-0.974-0.583-1.463c-1.232-2.441-3.4-3.974-5.379-3.652
		c-1.631,0.265-2.772,1.596-3.263,3.386C12.64,2.528,11.122,2.17,9.751,2.653c-2.939,1.035-3.866,5.261-2.183,9.175
		c0.005,0.012,0.012,0.022,0.017,0.034c-3.186,1.522-4.033,6.047-2.013,10.129c0.295,0.595,0.638,1.142,1.012,1.647
		c-3.519,1.455-4.448,5.873-2.232,9.734c0.708,1.234,1.654,2.25,2.706,3.017C6.56,37.58,6.668,39.045,7.46,40.397
		c1.063,1.816,3.058,2.894,4.926,2.881c3.283,6.447,7.311,8.948,13.41,11.536c0.064,0.027,0.128,0.054,0.192,0.08
		C25.688,54.704,25.403,54.486,25.154,54.206z"/>
	<path style="fill:#659C35;" d="M27.545,24.419c0.058-0.128,0.085-0.262,0.087-0.394c0.717-1.804,1.58-3.318,2.478-4.581
		c4.484-0.932,7.867,0.469,7.942,0.501c0.131,0.058,0.267,0.084,0.399,0.084c0.385,0,0.752-0.224,0.917-0.598
		c0.222-0.506-0.009-1.096-0.514-1.318c-0.139-0.06-2.898-1.238-6.865-0.949c1.938-2.021,3.639-2.938,3.893-3.066
		c1.453-0.696,3.576,0.204,4.273,0.61c0.159,0.094,0.333,0.138,0.506,0.138c0.342,0,0.676-0.176,0.862-0.492
		c0.28-0.476,0.123-1.088-0.354-1.369c-0.114-0.068-2.362-1.367-4.665-1.106c0.197-0.811,0.634-1.549,0.857-1.845
		c0.335-0.438,0.251-1.065-0.188-1.4c-0.437-0.335-1.066-0.253-1.401,0.187c-0.063,0.081-1.375,1.821-1.372,3.824
		c-1.455,0.891-5.214,3.592-7.844,9.02c-0.142,0.292-0.279,0.606-0.415,0.921c-2.728-1.865-2.279-5.183-2.254-5.344
		c0.085-0.544-0.286-1.055-0.831-1.142c-0.544-0.087-1.058,0.285-1.145,0.83c-0.29,1.815,0.126,5.555,3.495,7.564
		c-0.744,2.188-1.308,4.8-1.482,7.883c-0.02,0.097-0.024,0.191-0.016,0.287c-0.104,2.161-0.004,4.558,0.344,7.183
		c-1.268-0.698-1.848-1.719-1.885-1.788c-0.261-0.485-0.863-0.67-1.349-0.414c-0.488,0.257-0.677,0.862-0.419,1.351
		c0.053,0.101,1.25,2.314,4.017,3.169c0.721,3.956,2.006,8.398,4.084,13.383c0.685-0.045,1.352-0.226,1.942-0.52
		c-0.003-0.008-0.002-0.017-0.005-0.026c-2.181-5.189-3.497-9.76-4.197-13.799c-0.004-0.024-0.006-0.047-0.011-0.07
		c-0.52-3.03-0.689-5.753-0.591-8.192c1.4-2.387,5.515-2.483,5.557-2.484c0.552-0.009,0.993-0.462,0.985-1.014
		c-0.008-0.548-0.453-0.986-0.999-0.986c-0.004,0-0.008,0-0.012,0c-0.163,0.002-3.014,0.064-5.276,1.482
		c0.276-1.98,0.735-3.734,1.304-5.292C27.456,24.578,27.507,24.503,27.545,24.419z"/>
</g>
<g>
</g>
<g>
</g>
<g>
</g>
<g>
</g>
<g>
</g>
<g>
</g>
<g>
</g>
<g>
</g>
<g>
</g>
<g>
</g>
<g>
</g>
<g>
</g>
<g>
</g>
<g>
</g>
<g>
</g>
</svg>
